<?xml version="1.0" encoding="UTF-8" standalone="no"?>
<svg width="21px" height="18px" viewBox="0 0 21 18" version="1.1" xmlns="http://www.w3.org/2000/svg" xmlns:xlink="http://www.w3.org/1999/xlink">
    <!-- Generator: Sketch 40.3 (33839) - http://www.bohemiancoding.com/sketch -->
    <title>Page 1</title>
    <desc>Created with Sketch.</desc>
    <defs></defs>
    <g id="Page-1" stroke="none" stroke-width="1" fill="none" fill-rule="evenodd">
        <g id="Desktop-HD" transform="translate(-1387.000000, -61.000000)" fill="#000000">
            <path d="M1406,78.216 L1389,78.216 C1387.897,78.216 1387,77.319 1387,76.216 C1387,75.94 1387.224,75.716 1387.5,75.716 C1387.776,75.716 1388,75.94 1388,76.216 C1388,76.768 1388.448,77.216 1389,77.216 L1406,77.216 C1406.552,77.216 1407,76.768 1407,76.216 C1407,75.94 1407.224,75.716 1407.5,75.716 C1407.776,75.716 1408,75.94 1408,76.216 C1408,77.319 1407.103,78.216 1406,78.216 L1406,78.216 Z M1408,73.2773333 C1408,74.1053333 1407.328,74.7773333 1406.5,74.7773333 L1388.5,74.7773333 C1387.672,74.7773333 1387,74.1053333 1387,73.2773333 C1387,72.449 1387.672,71.7773333 1388.5,71.7773333 L1394.46733,71.7773333 L1396.44,72.7773333 L1388.5,72.7773333 C1388.22533,72.7773333 1388,73.0026667 1388,73.2773333 C1388,73.5546667 1388.22533,73.7773333 1388.5,73.7773333 L1398.41533,73.7773333 L1399.54033,74.3476667 C1399.72,74.44 1399.91267,74.483 1400.103,74.483 C1400.51567,74.483 1400.91533,74.28 1401.15233,73.9126667 L1401.23967,73.7773333 L1406.5,73.7773333 C1406.77467,73.7773333 1407,73.5546667 1407,73.2773333 C1407,73.0026667 1406.77467,72.7773333 1406.5,72.7773333 L1401.888,72.7773333 L1402.535,71.7773333 L1406.5,71.7773333 C1407.328,71.7773333 1408,72.4503333 1408,73.2773333 L1408,73.2773333 Z M1407.5,69.7773333 L1402.017,69.7773333 C1401.85167,69.7773333 1401.69133,69.8593333 1401.59633,70.0076667 L1401.09633,70.7773333 L1400.44933,71.7773333 L1399.927,72.5846667 L1398.33467,71.7773333 L1396.362,70.7773333 L1394.5,69.832 C1394.427,69.7943333 1394.35033,69.7773333 1394.272,69.7773333 L1387.5,69.7773333 C1387.22533,69.7773333 1387,70.0026667 1387,70.2773333 C1387,70.5546667 1387.22533,70.7773333 1387.5,70.7773333 L1394.14967,70.7773333 L1396.125,71.7773333 L1398.09767,72.7773333 L1399.87767,73.6796667 C1399.95067,73.7146667 1400.02733,73.7316667 1400.10533,73.7316667 C1400.26833,73.7316667 1400.42833,73.6523333 1400.52333,73.504 L1400.99333,72.776 L1402.289,70.776 L1407.5,70.776 C1407.77467,70.776 1408,70.5533333 1408,70.276 C1408,70.0026667 1407.77467,69.7773333 1407.5,69.7773333 L1407.5,69.7773333 Z M1408,67.25 L1408,67.2903333 C1407.99233,68.0806667 1407.37233,68.7276667 1406.59233,68.7733333 C1406.56267,68.7786667 1406.53267,68.7786667 1406.5,68.7786667 L1388.5,68.7786667 C1388.46733,68.7786667 1388.43733,68.7786667 1388.40767,68.7733333 C1387.62767,68.7276667 1387.00767,68.0806667 1387,67.2903333 L1387,67.25 C1387,63.7446667 1391.612,61 1397.5,61 C1403.388,61 1408,63.7446667 1408,67.25 L1408,67.25 Z M1407,67.25 C1407,64.3553333 1402.737,62 1397.5,62 C1392.263,62 1388,64.3553333 1388,67.25 L1388,67.2773333 C1388,67.2943333 1388,67.3096667 1388.00267,67.3266667 C1388.02733,67.5793333 1388.24233,67.7773333 1388.5,67.7773333 L1406.5,67.7773333 C1406.75767,67.7773333 1406.97267,67.5793333 1406.99733,67.3266667 C1407,67.3096667 1407,67.2943333 1407,67.2773333 L1407,67.25 Z" id="Page-1"></path>
        </g>
    </g>
</svg>