<?xml version="1.0" encoding="UTF-8" standalone="no"?>
<svg width="190px" height="96px" viewBox="0 0 190 96" version="1.1" xmlns="http://www.w3.org/2000/svg" xmlns:xlink="http://www.w3.org/1999/xlink">
    <!-- Generator: Sketch 39.1 (31720) - http://www.bohemiancoding.com/sketch -->
    <title>Group</title>
    <desc>Created with Sketch.</desc>
    <defs></defs>
    <g id="Page-1" stroke="none" stroke-width="1" fill="none" fill-rule="evenodd">
        <g id="Desktop-HD-Copy" transform="translate(-625.000000, -736.000000)" fill="#000000">
            <g id="Group" transform="translate(625.000000, 736.000000)">
                <path d="M34.4020312,95 L26.8020312,95 L26.8020312,83.16 C26.8020312,82.1199948 26.5953666,81.366669 26.1820312,80.9 C25.7686958,80.433331 25.2687008,80.2 24.6820312,80.2 C24.0686948,80.2 23.4220346,80.4799972 22.7420312,81.04 C22.0620278,81.6000028 21.5620328,82.3199956 21.2420312,83.2 L21.2420312,95 L13.6420312,95 L13.6420312,83.16 C13.6420312,82.1199948 13.4353666,81.366669 13.0220312,80.9 C12.6086958,80.433331 12.1087008,80.2 11.5220312,80.2 C10.9086948,80.2 10.2620346,80.4799972 9.58203124,81.04 C8.90202784,81.6000028 8.40203284,82.3199956 8.08203124,83.2 L8.08203124,95 L0.482031243,95 L0.482031243,73.96 L7.32203124,73.96 L7.32203124,77.08 C8.06870164,75.9333276 9.09535804,75.060003 10.4020312,74.46 C11.7087044,73.859997 13.2553556,73.56 15.0420312,73.56 C15.8953688,73.56 16.642028,73.659999 17.2820312,73.86 C17.9220344,74.060001 18.4753622,74.3333316 18.9420312,74.68 C19.4087002,75.0266684 19.7820298,75.4133312 20.0620312,75.84 C20.3420326,76.2666688 20.5620304,76.7199976 20.7220312,77.2 C21.4687016,76.0533276 22.4886914,75.1600032 23.7820312,74.52 C25.075371,73.8799968 26.5486896,73.56 28.2020312,73.56 C29.5887048,73.56 30.6886938,73.8199974 31.5020312,74.34 C32.3153686,74.8600026 32.9353624,75.5066628 33.3620312,76.28 C33.7887,77.0533372 34.0686972,77.8799956 34.2020312,78.76 C34.3353652,79.6400044 34.4020312,80.4399964 34.4020312,81.16 L34.4020312,95 Z M44.2020312,95.4 C43.162026,95.4 42.1887024,95.2266684 41.2820312,94.88 C40.37536,94.5333316 39.5953678,94.060003 38.9420312,93.46 C38.2886946,92.859997 37.7753664,92.1466708 37.4020312,91.32 C37.028696,90.4933292 36.8420312,89.6000048 36.8420312,88.64 C36.8420312,87.573328 37.0686956,86.6000044 37.5220312,85.72 C37.9753668,84.8399956 38.6020272,84.0800032 39.4020312,83.44 C40.2020352,82.7999968 41.155359,82.3066684 42.2620312,81.96 C43.3687034,81.6133316 44.5886912,81.44 45.9220312,81.44 C47.6287064,81.44 49.0420256,81.706664 50.1620312,82.24 L50.1620312,81.6 C50.1353644,80.6133284 49.842034,79.8800024 49.2820312,79.4 C48.7220284,78.9199976 47.8020376,78.68 46.5220312,78.68 C45.3220252,78.68 44.2153696,78.8733314 43.2020312,79.26 C42.1886928,79.6466686 41.1220368,80.2133296 40.0020312,80.96 L37.8020312,76.24 C40.5753784,74.4533244 43.7353468,73.56 47.2820312,73.56 C50.4020468,73.56 52.8686888,74.22666 54.6820312,75.56 C55.5887024,74.9466636 56.6220254,74.4600018 57.7820312,74.1 C58.942037,73.7399982 60.242024,73.56 61.6820312,73.56 C63.5487072,73.56 65.202024,73.859997 66.6420312,74.46 C68.0820384,75.060003 69.288693,75.859995 70.2620312,76.86 C71.2353694,77.860005 71.9686954,79.0199934 72.4620312,80.34 C72.955367,81.6600066 73.2020312,83.0399928 73.2020312,84.48 C73.2020312,84.880002 73.1820314,85.2866646 73.1420312,85.7 C73.102031,86.1133354 73.0553648,86.4799984 73.0020312,86.8 L58.2420312,86.8 C58.3220316,87.9200056 58.7353608,88.7266642 59.4820312,89.22 C60.2287016,89.7133358 61.0420268,89.96 61.9220312,89.96 C62.748702,89.96 63.5286942,89.7733352 64.2620312,89.4 C64.9953682,89.0266648 65.48203,88.50667 65.7220312,87.84 L72.1620312,89.68 C71.3086936,91.3600084 69.9953734,92.733328 68.2220312,93.8 C66.448689,94.866672 64.2687108,95.4 61.6820312,95.4 C59.5486872,95.4 57.702039,95.0266704 56.1420312,94.28 C54.5820234,93.5333296 53.322036,92.5466728 52.3620312,91.32 C51.855362,92.0400036 51.2687012,92.6599974 50.6020312,93.18 C49.9353612,93.7000026 49.2420348,94.1199984 48.5220312,94.44 C47.8020276,94.7600016 47.0687016,94.9999992 46.3220312,95.16 C45.5753608,95.3200008 44.8687012,95.4 44.2020312,95.4 L44.2020312,95.4 Z M46.4820312,89.96 C46.9353668,89.96 47.4020288,89.8866674 47.8820312,89.74 C48.3620336,89.5933326 48.788696,89.4000012 49.1620312,89.16 C49.455366,88.9466656 49.6953636,88.7133346 49.8820312,88.46 C50.0686988,88.2066654 50.1620312,87.946668 50.1620312,87.68 L50.1620312,86.12 C49.7086956,85.9599992 49.2153672,85.8266672 48.6820312,85.72 C48.1486952,85.6133328 47.6687,85.56 47.2420312,85.56 C46.3086932,85.56 45.5353676,85.7866644 44.9220312,86.24 C44.3086948,86.6933356 44.0020312,87.2666632 44.0020312,87.96 C44.0020312,88.5466696 44.2353622,89.0266648 44.7020312,89.4 C45.1687002,89.7733352 45.7620276,89.96 46.4820312,89.96 L46.4820312,89.96 Z M65.0420312,82.24 C64.9086972,81.2266616 64.5353676,80.4266696 63.9220312,79.84 C63.3086948,79.2533304 62.522036,78.96 61.5620312,78.96 C60.6020264,78.96 59.8153676,79.2533304 59.2020312,79.84 C58.5886948,80.4266696 58.2153652,81.2266616 58.0820312,82.24 L65.0420312,82.24 Z M90.1220312,93.84 C89.0553592,94.2933356 87.9153706,94.6733318 86.7020312,94.98 C85.4886918,95.2866682 84.2953704,95.44 83.1220312,95.44 C82.2686936,95.44 81.4553684,95.3333344 80.6820312,95.12 C79.908694,94.9066656 79.2353674,94.5600024 78.6620312,94.08 C78.088695,93.5999976 77.6353662,92.9733372 77.3020312,92.2 C76.9686962,91.4266628 76.8020312,90.4666724 76.8020312,89.32 L76.8020312,79.68 L74.2020312,79.68 L74.2020312,73.96 L76.8020312,73.96 L76.8020312,67.36 L84.4020312,67.36 L84.4020312,73.96 L88.5220312,73.96 L88.5220312,79.68 L84.4020312,79.68 L84.4020312,86.64 C84.4020312,87.3333368 84.5486964,87.8199986 84.8420312,88.1 C85.135366,88.3800014 85.535362,88.52 86.0420312,88.52 C86.4153664,88.52 86.8420288,88.4600006 87.3220312,88.34 C87.8020336,88.2199994 88.2820288,88.0533344 88.7620312,87.84 L90.1220312,93.84 Z M98.4020312,95.4 C97.362026,95.4 96.3887024,95.2266684 95.4820312,94.88 C94.57536,94.5333316 93.7953678,94.060003 93.1420312,93.46 C92.4886946,92.859997 91.9753664,92.1466708 91.6020312,91.32 C91.228696,90.4933292 91.0420312,89.6000048 91.0420312,88.64 C91.0420312,87.573328 91.2686956,86.6000044 91.7220312,85.72 C92.1753668,84.8399956 92.8020272,84.0800032 93.6020312,83.44 C94.4020352,82.7999968 95.355359,82.3066684 96.4620312,81.96 C97.5687034,81.6133316 98.7886912,81.44 100.122031,81.44 C101.828706,81.44 103.242026,81.706664 104.362031,82.24 L104.362031,81.6 C104.362031,80.6133284 104.075367,79.8800024 103.502031,79.4 C102.928695,78.9199976 102.002038,78.68 100.722031,78.68 C99.5220252,78.68 98.4153696,78.8733314 97.4020312,79.26 C96.3886928,79.6466686 95.3220368,80.2133296 94.2020312,80.96 L92.0020312,76.24 C94.7753784,74.4533244 97.9353468,73.56 101.482031,73.56 C104.842048,73.56 107.428689,74.3066592 109.242031,75.8 C111.055374,77.2933408 111.962031,79.5333184 111.962031,82.52 L111.962031,86.6 C111.962031,87.3200036 112.068697,87.8199986 112.282031,88.1 C112.495366,88.3800014 112.868695,88.5466664 113.402031,88.6 L113.402031,95 C112.788695,95.133334 112.208701,95.233333 111.662031,95.3 C111.115362,95.366667 110.6287,95.4 110.202031,95.4 C108.842024,95.4 107.808701,95.1533358 107.102031,94.66 C106.395361,94.1666642 105.935366,93.4400048 105.722031,92.48 L105.562031,91.72 C104.628693,92.920006 103.548704,93.8333302 102.322031,94.46 C101.095358,95.0866698 99.7887048,95.4 98.4020312,95.4 L98.4020312,95.4 Z M100.682031,89.96 C101.135367,89.96 101.602029,89.8866674 102.082031,89.74 C102.562034,89.5933326 102.988696,89.4000012 103.362031,89.16 C103.655366,88.9466656 103.895364,88.7133346 104.082031,88.46 C104.268699,88.2066654 104.362031,87.946668 104.362031,87.68 L104.362031,86.12 C103.908696,85.9599992 103.415367,85.8266672 102.882031,85.72 C102.348695,85.6133328 101.8687,85.56 101.442031,85.56 C100.508693,85.56 99.7353676,85.7866644 99.1220312,86.24 C98.5086948,86.6933356 98.2020312,87.2666632 98.2020312,87.96 C98.2020312,88.5466696 98.4353622,89.0266648 98.9020312,89.4 C99.3687002,89.7733352 99.9620276,89.96 100.682031,89.96 L100.682031,89.96 Z M130.362031,80.44 C128.895357,80.44 127.562037,80.5999984 126.362031,80.92 C125.162025,81.2400016 124.268701,81.7733296 123.682031,82.52 L123.682031,95 L116.082031,95 L116.082031,73.96 L123.042031,73.96 L123.042031,77.96 C123.788702,76.5466596 124.715359,75.4600038 125.822031,74.7 C126.928703,73.9399962 128.122025,73.56 129.402031,73.56 C129.9087,73.56 130.228697,73.5733332 130.362031,73.6 L130.362031,80.44 Z M132.642031,95 L132.642031,73.96 L140.242031,73.96 L140.242031,95 L132.642031,95 Z M132.642031,72.2 L132.642031,65.8 L140.242031,65.8 L140.242031,72.2 L132.642031,72.2 Z M165.162031,95 L157.562031,95 L157.562031,83.16 C157.562031,82.1199948 157.3287,81.366669 156.862031,80.9 C156.395362,80.433331 155.855368,80.2 155.242031,80.2 C154.602028,80.2 153.922035,80.4799972 153.202031,81.04 C152.482028,81.6000028 151.9487,82.3199956 151.602031,83.2 L151.602031,95 L144.002031,95 L144.002031,73.96 L150.842031,73.96 L150.842031,77.08 C151.588702,75.9333276 152.635358,75.060003 153.982031,74.46 C155.328705,73.859997 156.922022,73.56 158.762031,73.56 C160.202038,73.56 161.342027,73.8199974 162.182031,74.34 C163.022035,74.8600026 163.662029,75.5066628 164.102031,76.28 C164.542033,77.0533372 164.828697,77.8799956 164.962031,78.76 C165.095365,79.6400044 165.162031,80.4399964 165.162031,81.16 L165.162031,95 Z M189.922031,95 L182.322031,95 L182.322031,83.16 C182.322031,82.1199948 182.0887,81.366669 181.622031,80.9 C181.155362,80.433331 180.615368,80.2 180.002031,80.2 C179.362028,80.2 178.682035,80.4799972 177.962031,81.04 C177.242028,81.6000028 176.7087,82.3199956 176.362031,83.2 L176.362031,95 L168.762031,95 L168.762031,73.96 L175.602031,73.96 L175.602031,77.08 C176.348702,75.9333276 177.395358,75.060003 178.742031,74.46 C180.088705,73.859997 181.682022,73.56 183.522031,73.56 C184.962038,73.56 186.102027,73.8199974 186.942031,74.34 C187.782035,74.8600026 188.422029,75.5066628 188.862031,76.28 C189.302033,77.0533372 189.588697,77.8799956 189.722031,78.76 C189.855365,79.6400044 189.922031,80.4399964 189.922031,81.16 L189.922031,95 Z" id="mætarinn"></path>
                <path d="M80.11,0.7 C79.16608,0.7 78.4,1.46608 78.4,2.41 L78.4,7.3082 C76.73712,7.99144 75.55,9.63608 75.55,11.53 C75.55,14.0266 77.6134,16.09 80.11,16.09 C82.6066,16.09 84.67,14.0266 84.67,11.53 C84.67,9.63608 83.48288,7.99144 81.82,7.3082 L81.82,2.41 C81.82,1.46608 81.05392,0.7 80.11,0.7 L80.11,0.7 Z M102.91,0.7 C101.96608,0.7 101.2,1.46608 101.2,2.41 L101.2,7.3082 C99.53712,7.99144 98.35,9.63608 98.35,11.53 C98.35,14.0266 100.4134,16.09 102.91,16.09 C105.4066,16.09 107.47,14.0266 107.47,11.53 C107.47,9.63608 106.28288,7.99144 104.62,7.3082 L104.62,2.41 C104.62,1.46608 103.85392,0.7 102.91,0.7 L102.91,0.7 Z M73.28748,2.98 C69.8348,2.98 67,5.8148 67,9.26748 L67,45.71252 C67,49.1652 69.8348,52 73.28748,52 L109.73252,52 C113.1852,52 116.02,49.1652 116.02,45.71252 L116.02,9.26748 C116.02,5.8148 113.1852,2.98 109.73252,2.98 L107.47,2.98 C106.56712,2.96784 105.74252,3.78712 105.74252,4.69 C105.74252,5.59288 106.56712,6.41216 107.47,6.4 L109.73252,6.4 C111.34752,6.4 112.6,7.65248 112.6,9.26748 L112.6,16.66 L70.42,16.66 L70.42,9.26748 C70.42,7.65248 71.67248,6.4 73.28748,6.4 L75.55,6.4 C76.45288,6.41216 77.27748,5.59288 77.27748,4.69 C77.27748,3.78712 76.45288,2.96784 75.55,2.98 L73.28748,2.98 Z M84.49216,2.98 C83.59536,3.02712 82.8232,3.88288 82.87108,4.77892 C82.9182,5.67572 83.7732,6.44712 84.67,6.4 L98.35,6.4 C99.25288,6.41216 100.07748,5.59288 100.07748,4.69 C100.07748,3.78712 99.25288,2.96784 98.35,2.98 L84.49216,2.98 Z M80.11,10.39 C80.7598,10.39 81.25,10.8802 81.25,11.53 C81.25,12.1798 80.7598,12.67 80.11,12.67 C79.4602,12.67 78.97,12.1798 78.97,11.53 C78.97,10.8802 79.4602,10.39 80.11,10.39 L80.11,10.39 Z M102.91,10.39 C103.5598,10.39 104.05,10.8802 104.05,11.53 C104.05,12.1798 103.5598,12.67 102.91,12.67 C102.2602,12.67 101.77,12.1798 101.77,11.53 C101.77,10.8802 102.2602,10.39 102.91,10.39 L102.91,10.39 Z M70.42,20.08 L112.6,20.08 L112.6,45.71252 C112.6,47.32752 111.34752,48.58 109.73252,48.58 L73.28748,48.58 C71.67248,48.58 70.42,47.32752 70.42,45.71252 L70.42,20.08 Z M101.8232,26.35 C101.73428,26.34392 101.66284,26.35608 101.57392,26.36748 C101.19088,26.4184 100.82608,26.60536 100.55856,26.88428 L88.09,39.46 L82.4432,34.75712 C81.77516,34.07768 80.5052,34.13088 79.89644,34.86428 C79.28768,35.59768 79.47768,36.84484 80.27036,37.37608 L87.11036,43.05784 C87.77232,43.62252 88.81124,43.56248 89.40784,42.96892 L102.98144,29.28892 C103.48912,28.7934 103.6282,27.95284 103.31964,27.31216 C103.04984,26.75052 102.44108,26.3766 101.8232,26.35 L101.8232,26.35 Z" id="Page-1"></path>
            </g>
        </g>
    </g>
</svg>