<?xml version="1.0" encoding="UTF-8" standalone="no"?>
<svg width="20px" height="19px" viewBox="0 0 20 19" version="1.1" xmlns="http://www.w3.org/2000/svg" xmlns:xlink="http://www.w3.org/1999/xlink">
    <!-- Generator: Sketch 40.3 (33839) - http://www.bohemiancoding.com/sketch -->
    <title>Page 1</title>
    <desc>Created with Sketch.</desc>
    <defs></defs>
    <g id="Page-1" stroke="none" stroke-width="1" fill="none" fill-rule="evenodd">
        <g id="Desktop-HD-Copy-2" transform="translate(-1386.000000, -61.000000)" fill="#000000">
            <g id="Page-1" transform="translate(1386.000000, 61.000000)">
                <path d="M19.5918367,17.9486667 L15.3061224,13.7924167 L15.4289796,13.6732708 C15.9787755,13.1381042 15.9787755,12.2724167 15.4289796,11.73725 L13.0563265,9.43983333 C14.2697959,8.07895833 15.3428571,6.6084375 16.2612245,5.046875 C16.6469388,4.42066667 16.7457143,3.66779167 16.5306122,2.96875 C16.3534694,2.405875 15.937551,1.94354167 15.3857143,1.69772917 C14.1885714,1.213625 12.8061224,1.679125 12.1746939,2.77875 C10.0591837,6.357875 6.99632653,9.3254375 3.30367347,11.373875 C2.16979592,11.9862292 1.69020408,13.3253333 2.18897959,14.4882917 C2.44244898,15.0230625 2.91918367,15.4268125 3.49959184,15.5982083 C3.74857143,15.6757917 4.00653061,15.7141875 4.26816327,15.7141875 C4.75428571,15.7110208 5.23102041,15.5859375 5.6522449,15.3492292 C7.25591837,14.4570208 8.76734694,13.4151875 10.162449,12.2399583 L12.535102,14.546875 C13.0865306,15.0804583 13.9795918,15.0804583 14.5314286,14.546875 L14.6538776,14.4277292 L18.9395918,18.5839792 C19.12,18.7589375 19.4130612,18.7589375 19.5934694,18.5823958 C19.7734694,18.4078333 19.7718367,18.1232292 19.5918367,17.9486667 L19.5918367,17.9486667 Z M5.20408163,14.5761667 L5.20408163,14.5761667 C4.78,14.8235625 4.26816327,14.8868958 3.79306122,14.751125 C3.46,14.6549375 3.18571429,14.4261458 3.03714286,14.12175 C2.72979592,13.3779792 3.04530612,12.5273333 3.7722449,12.1441667 C7.59387755,10.0181458 10.7636735,6.94410417 12.9559184,3.23791667 C13.3465306,2.52660417 14.2281633,2.21429167 15,2.51433333 C15.3142857,2.65802083 15.5502041,2.92560417 15.6489796,3.24702083 C15.7893878,3.70777083 15.7236735,4.20414583 15.4685714,4.61541667 C13.0212245,8.76097917 9.47714286,12.1995833 5.20408163,14.5761667 L5.20408163,14.5761667 Z M13.8918367,13.9115625 L13.8918367,13.9115625 C13.6987755,14.0983958 13.3865306,14.0983958 13.1934694,13.9115625 L10.8579592,11.6462083 C11.0204082,11.5009375 11.1828571,11.3493333 11.3408163,11.2008958 L14.0130612,13.7924167 L13.8918367,13.9115625 Z M14.7893878,13.0407292 L14.6669388,13.159875 L11.9946939,10.5683542 C12.1510204,10.4139792 12.3008163,10.2714792 12.4538776,10.1000833 L14.7893878,12.3650417 C14.977551,12.5554375 14.9730612,12.8566667 14.78,13.0423125 L14.7893878,13.0407292 Z" id="Fill-1"></path>
                <path d="M7.34693878,12.0974583 L7.34693878,12.0974583 C6.43020408,12.7640417 5.47020408,13.3763958 4.4755102,13.9297708 C4.12,14.1276875 4.42612245,14.64425 4.78163265,14.4463333 C5.79877551,13.8802917 6.77918367,13.2556667 7.71673469,12.5724583 C8.04367347,12.3341667 7.6755102,11.8595625 7.35020408,12.0974583 L7.34693878,12.0974583 Z" id="Fill-2"></path>
                <path d="M15.2167347,3.80514583 L15.2167347,3.80514583 C15.0702041,3.72320833 14.8820408,3.77110417 14.797551,3.9151875 C13.3514286,6.36420833 11.5179592,8.5785 9.36367347,10.4757292 C9.06244898,10.7433125 9.4755102,11.1822917 9.77673469,10.9147083 C11.9787755,8.97591667 13.8522449,6.71214583 15.3302041,4.21047917 C15.4130612,4.06797917 15.3636735,3.88708333 15.2167347,3.80514583 L15.2167347,3.80514583 Z" id="Fill-3"></path>
                <path d="M1.29795918,14.6054583 L1.29795918,14.6054583 C1.0155102,14.5607292 0.726938776,14.6272292 0.495918367,14.7895208 C0.188163265,15.0246458 0.527755102,15.4806458 0.854693878,15.2704583 C1.06204082,15.1251875 1.35061224,15.1699167 1.50040816,15.371 C1.65020408,15.5720833 1.60408163,15.8519375 1.39673469,15.9972083 C1.08897959,16.2323333 1.42857143,16.6883333 1.7555102,16.4781458 C2.53673469,15.9354583 2.24489796,14.746375 1.29632653,14.6026875 L1.29795918,14.6054583 Z" id="Fill-4"></path>
                <path d="M15.9644898,1.7396875 L15.9644898,1.7396875 C16.1334694,1.83983333 16.3265306,1.8940625 16.5240816,1.8940625 C16.6102041,1.8940625 16.6946939,1.883375 16.777551,1.86477083 C17.0567347,1.8014375 17.2991837,1.6328125 17.4489796,1.39452083 C17.5636735,1.25241667 17.5240816,1.04539583 17.3628571,0.953958333 C17.2032653,0.8645 16.9963265,0.931 16.9261224,1.09764583 C16.6040816,1.607875 15.8130612,1.13960417 16.1367347,0.629375 C16.364898,0.290541667 15.8404082,-0.0415625 15.6122449,0.296875 C15.3012245,0.7885 15.462449,1.43172917 15.9710204,1.7301875 L15.9644898,1.7396875 Z" id="Fill-5"></path>
            </g>
        </g>
    </g>
</svg>